<svg width="146" height="114" viewBox="0 0 146 114" fill="none" xmlns="http://www.w3.org/2000/svg">
<circle cx="56.6846" cy="55.7989" r="51.982" fill="white"/>
<path d="M110.536 56.6852C112.101 56.6852 113.378 57.9551 113.3 59.5184C112.788 69.7352 109.52 79.6429 103.817 88.1778C97.5885 97.4996 88.7355 104.765 78.3777 109.055C68.0198 113.346 56.6223 114.468 45.6264 112.281C34.6306 110.094 24.5303 104.695 16.6027 96.7677C8.67514 88.8401 3.2764 78.7398 1.08919 67.7439C-1.09802 56.7481 0.0245354 45.3506 4.3149 34.9927C8.60527 24.6348 15.8708 15.7818 25.1926 9.55317C33.7274 3.85037 43.6351 0.58203 53.8519 0.0708308C55.4153 -0.00739214 56.6852 1.26894 56.6852 2.83426C56.6852 4.39958 55.4152 5.66031 53.8523 5.74721C44.7573 6.25293 35.9444 9.18651 28.3418 14.2664C19.9522 19.8722 13.4133 27.8399 9.55193 37.1619C5.6906 46.484 4.6803 56.7418 6.64879 66.638C8.61728 76.5343 13.4761 85.6246 20.611 92.7594C27.7458 99.8942 36.8361 104.753 46.7323 106.722C56.6286 108.69 66.8863 107.68 76.2084 103.818C85.5305 99.9571 93.4982 93.4182 99.104 85.0285C104.184 77.426 107.117 68.6131 107.623 59.518C107.71 57.9551 108.971 56.6852 110.536 56.6852Z" fill="#3B82F6"/>
<path d="M118.67 73V71.0664H120.379V73H118.67ZM123.631 73V55.627H125.633V73H123.631ZM131.6 73.1758C130.91 73.1758 130.35 73.0586 129.92 72.8242C129.49 72.5833 129.158 72.2448 128.924 71.8086C128.696 71.3659 128.54 70.8385 128.455 70.2266C128.37 69.6081 128.328 68.918 128.328 68.1562V62.9707C128.328 62.0527 128.416 61.2324 128.592 60.5098C128.768 59.7871 129.09 59.2174 129.559 58.8008C130.034 58.3841 130.714 58.1758 131.6 58.1758C132.264 58.1758 132.807 58.2962 133.23 58.5371C133.654 58.7715 133.982 59.1068 134.217 59.543C134.451 59.9727 134.611 60.4805 134.695 61.0664C134.786 61.6458 134.832 62.2806 134.832 62.9707V68.1562C134.832 68.9049 134.793 69.5853 134.715 70.1973C134.637 70.8092 134.484 71.3398 134.256 71.7891C134.035 72.2318 133.709 72.5736 133.279 72.8145C132.856 73.0553 132.296 73.1758 131.6 73.1758ZM131.6 71.5059C131.951 71.5059 132.212 71.3887 132.381 71.1543C132.557 70.9199 132.674 70.5944 132.732 70.1777C132.791 69.7546 132.82 69.2663 132.82 68.7129V62.5703C132.82 62.0234 132.791 61.5482 132.732 61.1445C132.674 60.7344 132.557 60.4154 132.381 60.1875C132.205 59.9596 131.945 59.8457 131.6 59.8457C131.235 59.8457 130.962 59.9596 130.779 60.1875C130.597 60.4154 130.477 60.7344 130.418 61.1445C130.366 61.5482 130.34 62.0234 130.34 62.5703V68.7129C130.34 69.2663 130.366 69.7546 130.418 70.1777C130.477 70.5944 130.597 70.9199 130.779 71.1543C130.962 71.3887 131.235 71.5059 131.6 71.5059ZM140.398 75.2363C139.728 75.2559 139.122 75.181 138.582 75.0117C138.048 74.8424 137.589 74.6048 137.205 74.2988L137.928 72.9316C138.214 73.127 138.553 73.2995 138.943 73.4492C139.334 73.599 139.786 73.6673 140.301 73.6543C140.757 73.6413 141.108 73.4688 141.355 73.1367C141.609 72.8112 141.736 72.3717 141.736 71.8184V70.4219C141.548 70.9036 141.287 71.2259 140.955 71.3887C140.623 71.5514 140.245 71.6328 139.822 71.6328C139.139 71.6328 138.608 71.4342 138.23 71.0371C137.859 70.64 137.599 70.0964 137.449 69.4062C137.306 68.7161 137.234 67.9349 137.234 67.0625V62.8633C137.234 61.9714 137.319 61.1706 137.488 60.4609C137.664 59.7513 137.954 59.1914 138.357 58.7812C138.761 58.3646 139.308 58.1628 139.998 58.1758C140.415 58.1823 140.773 58.2865 141.072 58.4883C141.378 58.6901 141.6 59.0026 141.736 59.4258V58.3516H143.738V71.6328C143.738 72.0495 143.686 72.4661 143.582 72.8828C143.484 73.2995 143.312 73.6803 143.064 74.0254C142.824 74.377 142.485 74.6602 142.049 74.875C141.619 75.0964 141.069 75.2168 140.398 75.2363ZM140.594 70.041C140.854 70.041 141.069 69.9629 141.238 69.8066C141.408 69.6504 141.531 69.3607 141.609 68.9375C141.694 68.5078 141.736 67.8926 141.736 67.0918V62.5703C141.736 61.6784 141.655 61.0013 141.492 60.5391C141.336 60.0768 141.004 59.8457 140.496 59.8457C140.125 59.8457 139.848 59.9629 139.666 60.1973C139.49 60.4251 139.376 60.7409 139.324 61.1445C139.272 61.5482 139.246 62.0169 139.246 62.5508V67.1113C139.246 68.0814 139.334 68.8138 139.51 69.3086C139.686 69.7969 140.047 70.041 140.594 70.041Z" fill="black"/>
<path d="M23.8497 78.1768V75.4643C23.8497 73.6006 23.9973 71.903 24.2926 70.3715C24.6063 68.8399 25.1229 67.2438 25.8426 65.5831C26.5806 63.9224 27.5771 61.9849 28.8318 59.7707L33.3157 51.827C33.7401 51.0889 34.0815 50.3232 34.3398 49.5297C34.5981 48.7178 34.8011 47.8875 34.9487 47.0387C35.1148 46.1899 35.2255 45.3411 35.2809 44.4923C35.3362 43.625 35.3639 42.767 35.3639 41.9182C35.3639 39.5747 35.2716 37.8218 35.0871 36.6593C34.9026 35.4968 34.5889 34.731 34.146 34.362C33.7216 33.9745 33.1312 33.7807 32.3746 33.7807C31.5996 33.7807 30.9723 33.9837 30.4925 34.3897C30.0128 34.7772 29.6622 35.5891 29.4407 36.8254C29.2193 38.0432 29.1086 39.8884 29.1086 42.361V48.6994H23.5176V45.2672C23.5176 41.7613 23.7021 38.7997 24.0711 36.3825C24.4402 33.9468 25.2798 32.1016 26.5899 30.8468C27.9 29.5736 29.9666 28.937 32.7898 28.937C34.9487 28.937 36.6002 29.5183 37.7442 30.6808C38.9067 31.8248 39.7002 33.4117 40.1246 35.4414C40.5674 37.4527 40.7888 39.7685 40.7888 42.3887C40.7888 43.994 40.6874 45.4887 40.4844 46.8726C40.2814 48.2565 39.9585 49.5851 39.5156 50.8583C39.0728 52.1315 38.4823 53.4323 37.7442 54.7609L33.3157 62.7323C32.2824 64.5775 31.4889 66.0813 30.9354 67.2438C30.4003 68.4063 30.0312 69.4765 29.8282 70.4545C29.6253 71.414 29.5238 72.5581 29.5238 73.8866H40.0415V78.1768H23.8497ZM53.161 78.5366C51.1129 78.5366 49.5813 77.9369 48.5664 76.7375C47.57 75.5381 46.9058 73.9143 46.5736 71.8661C46.2599 69.7995 46.1031 67.4745 46.1031 64.8912V49.1976C46.1031 46.725 46.3245 44.5107 46.7674 42.5548C47.2287 40.5804 48.0313 39.0212 49.1754 37.8771C50.3379 36.7331 51.9524 36.1611 54.0191 36.1611C55.1078 36.1611 56.0765 36.4748 56.9253 37.1021C57.7926 37.7295 58.4476 38.5045 58.8905 39.4271V28.937H64.5922V78.1768H58.8905V74.6893C58.3369 76.0548 57.5527 77.0419 56.5378 77.6509C55.5229 78.2413 54.3973 78.5366 53.161 78.5366ZM55.1262 73.9143C55.9935 73.9143 56.7039 73.7021 57.2574 73.2777C57.8295 72.8348 58.2446 72.0229 58.503 70.842C58.7797 69.6611 58.9181 67.9727 58.9181 65.7769V49.1145C58.9181 46.4205 58.6875 44.3815 58.2262 42.9976C57.7833 41.6137 56.7961 40.9218 55.2646 40.9218C53.8807 40.9402 52.9581 41.6229 52.4968 42.9699C52.0355 44.2985 51.8048 46.3928 51.8048 49.2529V66.026C51.8048 67.6313 51.8786 69.0245 52.0262 70.2054C52.1923 71.3863 52.5152 72.2997 52.995 72.9456C53.4747 73.5914 54.1851 73.9143 55.1262 73.9143ZM81.3929 78.675C79.437 78.675 77.8501 78.3428 76.6323 77.6785C75.4144 76.9958 74.4734 76.0363 73.8091 74.8C73.1632 73.5453 72.7204 72.0506 72.4805 70.3161C72.2406 68.5632 72.1207 66.6072 72.1207 64.4483V49.7511C72.1207 47.1494 72.3698 44.8244 72.868 42.7762C73.3662 40.728 74.2796 39.1134 75.6082 37.9325C76.9552 36.7516 78.8834 36.1611 81.3929 36.1611C83.2751 36.1611 84.8158 36.5024 86.0152 37.1852C87.2146 37.8495 88.1464 38.7997 88.8107 40.036C89.475 41.2539 89.9271 42.6932 90.167 44.3539C90.4253 45.9961 90.5544 47.7952 90.5544 49.7511V64.4483C90.5544 66.5703 90.4437 68.4986 90.2223 70.2331C90.0009 71.9676 89.5673 73.4714 88.9214 74.7446C88.2941 75.9994 87.3714 76.9681 86.1536 77.6509C84.9542 78.3336 83.3673 78.675 81.3929 78.675ZM81.3929 73.942C82.3893 73.942 83.1274 73.6098 83.6072 72.9456C84.1054 72.2813 84.4375 71.3587 84.6036 70.1777C84.7697 68.9783 84.8527 67.5944 84.8527 66.026V48.6163C84.8527 47.0663 84.7697 45.7193 84.6036 44.5753C84.4375 43.4128 84.1054 42.5086 83.6072 41.8628C83.109 41.217 82.3709 40.8941 81.3929 40.8941C80.3596 40.8941 79.5846 41.217 79.0679 41.8628C78.5513 42.5086 78.2099 43.4128 78.0439 44.5753C77.8962 45.7193 77.8224 47.0663 77.8224 48.6163V66.026C77.8224 67.5944 77.8962 68.9783 78.0439 70.1777C78.2099 71.3587 78.5513 72.2813 79.0679 72.9456C79.5846 73.6098 80.3596 73.942 81.3929 73.942Z" fill="#3B82F6"/>
<line x1="66.3403" y1="49.6694" x2="74.4688" y2="49.6694" stroke="black" stroke-width="2.5" stroke-linecap="round"/>
<line x1="34.0744" y1="51.1518" x2="45.3195" y2="48.0263" stroke="black" stroke-width="2.5" stroke-linecap="round"/>
<mask id="path-7-inside-1_205_75" fill="white">
<rect x="45.6047" y="40.291" width="21.2569" height="21.2569" rx="1.77141"/>
</mask>
<rect x="45.6047" y="40.291" width="21.2569" height="21.2569" rx="1.77141" fill="url(#paint0_linear_205_75)" stroke="black" stroke-width="5" mask="url(#path-7-inside-1_205_75)"/>
<mask id="path-8-inside-2_205_75" fill="white">
<rect x="73.9473" y="40.291" width="21.2569" height="21.2569" rx="1.77141"/>
</mask>
<rect x="73.9473" y="40.291" width="21.2569" height="21.2569" rx="1.77141" fill="url(#paint1_linear_205_75)" stroke="black" stroke-width="5" mask="url(#path-8-inside-2_205_75)"/>
<defs>
<linearGradient id="paint0_linear_205_75" x1="46.4904" y1="42.0624" x2="65.0903" y2="60.6623" gradientUnits="userSpaceOnUse">
<stop stop-color="white"/>
<stop offset="1" stop-color="white" stop-opacity="0"/>
</linearGradient>
<linearGradient id="paint1_linear_205_75" x1="74.833" y1="42.0624" x2="93.4328" y2="60.6623" gradientUnits="userSpaceOnUse">
<stop stop-color="white"/>
<stop offset="1" stop-color="white" stop-opacity="0"/>
</linearGradient>
</defs>
</svg>
