<svg width="114" height="114" viewBox="0 0 114 114" fill="none" xmlns="http://www.w3.org/2000/svg">
<circle cx="56.6846" cy="55.7989" r="51.982" fill="white"/>
<path d="M110.536 56.6852C112.101 56.6852 113.378 57.9551 113.3 59.5184C112.788 69.7352 109.52 79.6429 103.817 88.1778C97.5885 97.4996 88.7355 104.765 78.3777 109.055C68.0198 113.346 56.6223 114.468 45.6264 112.281C34.6306 110.094 24.5303 104.695 16.6027 96.7677C8.67514 88.8401 3.2764 78.7398 1.08919 67.7439C-1.09802 56.7481 0.0245354 45.3506 4.3149 34.9927C8.60527 24.6348 15.8708 15.7818 25.1926 9.55317C33.7274 3.85037 43.6351 0.58203 53.8519 0.0708308C55.4153 -0.00739214 56.6852 1.26894 56.6852 2.83426C56.6852 4.39958 55.4152 5.66031 53.8523 5.74721C44.7573 6.25293 35.9444 9.18651 28.3418 14.2664C19.9522 19.8722 13.4133 27.8399 9.55193 37.1619C5.6906 46.484 4.6803 56.7418 6.64879 66.638C8.61728 76.5343 13.4761 85.6246 20.611 92.7594C27.7458 99.8942 36.8361 104.753 46.7323 106.722C56.6286 108.69 66.8863 107.68 76.2084 103.818C85.5305 99.9571 93.4982 93.4182 99.104 85.0285C104.184 77.426 107.117 68.6131 107.623 59.518C107.71 57.9551 108.971 56.6852 110.536 56.6852Z" fill="#3B82F6"/>
<path d="M23.8497 78.177V75.4645C23.8497 73.6009 23.9973 71.9033 24.2926 70.3717C24.6063 68.8402 25.1229 67.2441 25.8426 65.5834C26.5806 63.9227 27.5771 61.9852 28.8318 59.7709L33.3157 51.8273C33.7401 51.0892 34.0815 50.3234 34.3398 49.53C34.5981 48.7181 34.8011 47.8877 34.9487 47.0389C35.1148 46.1901 35.2255 45.3413 35.2809 44.4925C35.3362 43.6252 35.3639 42.7672 35.3639 41.9184C35.3639 39.575 35.2716 37.822 35.0871 36.6595C34.9026 35.497 34.5889 34.7313 34.146 34.3622C33.7216 33.9747 33.1312 33.781 32.3746 33.781C31.5996 33.781 30.9723 33.984 30.4925 34.3899C30.0128 34.7774 29.6622 35.5893 29.4407 36.8256C29.2193 38.0435 29.1086 39.8887 29.1086 42.3613V48.6996H23.5176V45.2675C23.5176 41.7616 23.7021 38.8 24.0711 36.3828C24.4402 33.9471 25.2798 32.1018 26.5899 30.8471C27.9 29.5739 29.9666 28.9373 32.7898 28.9373C34.9487 28.9373 36.6002 29.5185 37.7442 30.681C38.9067 31.8251 39.7002 33.4119 40.1246 35.4417C40.5674 37.453 40.7888 39.7687 40.7888 42.3889C40.7888 43.9943 40.6874 45.4889 40.4844 46.8728C40.2814 48.2567 39.9585 49.5853 39.5156 50.8585C39.0728 52.1317 38.4823 53.4326 37.7442 54.7612L33.3157 62.7325C32.2824 64.5777 31.4889 66.0816 30.9354 67.2441C30.4003 68.4066 30.0312 69.4768 29.8282 70.4548C29.6253 71.4143 29.5238 72.5583 29.5238 73.8869H40.0415V78.177H23.8497ZM53.161 78.5368C51.1129 78.5368 49.5813 77.9371 48.5664 76.7377C47.57 75.5383 46.9058 73.9145 46.5736 71.8663C46.2599 69.7997 46.1031 67.4747 46.1031 64.8914V49.1978C46.1031 46.7252 46.3245 44.5109 46.7674 42.555C47.2287 40.5806 48.0313 39.0214 49.1754 37.8774C50.3379 36.7333 51.9524 36.1613 54.0191 36.1613C55.1078 36.1613 56.0765 36.475 56.9253 37.1024C57.7926 37.7298 58.4476 38.5048 58.8905 39.4274V28.9373H64.5922V78.177H58.8905V74.6895C58.3369 76.055 57.5527 77.0422 56.5378 77.6511C55.5229 78.2416 54.3973 78.5368 53.161 78.5368ZM55.1262 73.9145C55.9935 73.9145 56.7039 73.7023 57.2574 73.2779C57.8295 72.8351 58.2446 72.0232 58.503 70.8422C58.7797 69.6613 58.9181 67.9729 58.9181 65.7771V49.1148C58.9181 46.4208 58.6875 44.3818 58.2262 42.9979C57.7833 41.614 56.7961 40.922 55.2646 40.922C53.8807 40.9404 52.9581 41.6232 52.4968 42.9702C52.0355 44.2987 51.8048 46.3931 51.8048 49.2532V66.0262C51.8048 67.6316 51.8786 69.0247 52.0262 70.2056C52.1923 71.3866 52.5152 72.3 52.995 72.9458C53.4747 73.5916 54.1851 73.9145 55.1262 73.9145ZM81.3929 78.6752C79.437 78.6752 77.8501 78.3431 76.6323 77.6788C75.4144 76.9961 74.4734 76.0365 73.8091 74.8002C73.1632 73.5455 72.7204 72.0509 72.4805 70.3164C72.2406 68.5634 72.1207 66.6075 72.1207 64.4486V49.7514C72.1207 47.1496 72.3698 44.8246 72.868 42.7764C73.3662 40.7282 74.2796 39.1137 75.6082 37.9327C76.9552 36.7518 78.8834 36.1613 81.3929 36.1613C83.2751 36.1613 84.8158 36.5027 86.0152 37.1854C87.2146 37.8497 88.1464 38.8 88.8107 40.0363C89.475 41.2541 89.9271 42.6934 90.167 44.3541C90.4253 45.9964 90.5544 47.7954 90.5544 49.7514V64.4486C90.5544 66.5706 90.4437 68.4988 90.2223 70.2333C90.0009 71.9678 89.5673 73.4717 88.9214 74.7449C88.2941 75.9996 87.3714 76.9684 86.1536 77.6511C84.9542 78.3338 83.3673 78.6752 81.3929 78.6752ZM81.3929 73.9422C82.3893 73.9422 83.1274 73.6101 83.6072 72.9458C84.1054 72.2815 84.4375 71.3589 84.6036 70.178C84.7697 68.9786 84.8527 67.5947 84.8527 66.0262V48.6166C84.8527 47.0666 84.7697 45.7196 84.6036 44.5755C84.4375 43.413 84.1054 42.5089 83.6072 41.8631C83.109 41.2172 82.3709 40.8943 81.3929 40.8943C80.3596 40.8943 79.5846 41.2172 79.0679 41.8631C78.5513 42.5089 78.2099 43.413 78.0439 44.5755C77.8962 45.7196 77.8224 47.0666 77.8224 48.6166V66.0262C77.8224 67.5947 77.8962 68.9786 78.0439 70.178C78.2099 71.3589 78.5513 72.2815 79.0679 72.9458C79.5846 73.6101 80.3596 73.9422 81.3929 73.9422Z" fill="#3B82F6"/>
<line x1="66.3403" y1="49.6694" x2="74.4688" y2="49.6694" stroke="black" stroke-width="2.5" stroke-linecap="round"/>
<line x1="34.0744" y1="51.1518" x2="45.3195" y2="48.0263" stroke="black" stroke-width="2.5" stroke-linecap="round"/>
<mask id="path-6-inside-1_205_65" fill="white">
<rect x="45.6047" y="40.291" width="21.2569" height="21.2569" rx="1.77141"/>
</mask>
<rect x="45.6047" y="40.291" width="21.2569" height="21.2569" rx="1.77141" fill="url(#paint0_linear_205_65)" stroke="black" stroke-width="5" mask="url(#path-6-inside-1_205_65)"/>
<mask id="path-7-inside-2_205_65" fill="white">
<rect x="73.9473" y="40.291" width="21.2569" height="21.2569" rx="1.77141"/>
</mask>
<rect x="73.9473" y="40.291" width="21.2569" height="21.2569" rx="1.77141" fill="url(#paint1_linear_205_65)" stroke="black" stroke-width="5" mask="url(#path-7-inside-2_205_65)"/>
<path d="M38 87V87C50.1925 89.6362 62.8075 89.6362 75 87V87" stroke="black" stroke-width="3"/>
<defs>
<linearGradient id="paint0_linear_205_65" x1="46.4904" y1="42.0624" x2="65.0903" y2="60.6623" gradientUnits="userSpaceOnUse">
<stop stop-color="white"/>
<stop offset="1" stop-color="white" stop-opacity="0"/>
</linearGradient>
<linearGradient id="paint1_linear_205_65" x1="74.833" y1="42.0624" x2="93.4328" y2="60.6623" gradientUnits="userSpaceOnUse">
<stop stop-color="white"/>
<stop offset="1" stop-color="white" stop-opacity="0"/>
</linearGradient>
</defs>
</svg>
