<svg width="193" height="233" viewBox="0 0 193 233" fill="none" xmlns="http://www.w3.org/2000/svg">
<line x1="100.492" y1="88.3378" x2="113.228" y2="88.3378" stroke="black" stroke-width="3.91717" stroke-linecap="round"/>
<line x1="49.9353" y1="90.6602" x2="67.5548" y2="85.763" stroke="black" stroke-width="3.91717" stroke-linecap="round"/>
<mask id="path-3-inside-1_321_31" fill="white">
<rect x="68.0015" y="73.6426" width="33.3068" height="33.3068" rx="2.77557"/>
</mask>
<rect x="68.0015" y="73.6426" width="33.3068" height="33.3068" rx="2.77557" fill="url(#paint0_linear_321_31)" stroke="black" stroke-width="7.83434" mask="url(#path-3-inside-1_321_31)"/>
<mask id="path-4-inside-2_321_31" fill="white">
<rect x="112.411" y="73.6426" width="33.3068" height="33.3068" rx="2.77557"/>
</mask>
<rect x="112.411" y="73.6426" width="33.3068" height="33.3068" rx="2.77557" fill="url(#paint1_linear_321_31)" stroke="black" stroke-width="7.83434" mask="url(#path-4-inside-2_321_31)"/>
<path d="M114.06 153.097V153.097C94.9561 148.967 75.1899 148.967 56.086 153.097V153.097" stroke="black" stroke-width="4.7006"/>
<path d="M24.5531 226.025V222.995H27.2308V226.025H24.5531ZM32.6934 226.025V222.995H35.3712V226.025H32.6934ZM40.8338 226.025V222.995H43.5116V226.025H40.8338ZM49.2037 226.025L45.6538 199.094H48.5763L50.8715 219.736L53.9318 199.094H56.5178L59.6546 219.736L61.5978 199.094H64.5051L61.3224 226.025H58.1856L55.309 206.148L52.264 226.025H49.2037ZM67.5501 226.025V198.804H70.6869V205.506C70.8909 204.792 71.3194 204.159 71.9722 203.608C72.6353 203.057 73.4259 202.782 74.344 202.782C75.4967 202.782 76.3994 203.19 77.0523 204.006C77.7052 204.822 78.0316 206.062 78.0316 207.724V226.025H74.8948V207.985C74.8948 207.046 74.7214 206.398 74.3746 206.041C74.0379 205.674 73.584 205.49 73.0127 205.49C72.5945 205.49 72.2068 205.592 71.8498 205.796C71.4928 205.99 71.2072 206.301 70.9929 206.73C70.7889 207.148 70.6869 207.694 70.6869 208.367V226.025H67.5501ZM85.8353 226.224C84.448 226.224 83.4483 225.688 82.8362 224.617C82.2242 223.536 81.9131 222.041 81.9029 220.134V217.9C81.9029 216.89 82.0763 216.053 82.4231 215.39C82.7699 214.717 83.2596 214.156 83.892 213.707C84.5245 213.258 85.2692 212.855 86.1261 212.498C86.9829 212.131 87.9214 211.744 88.9415 211.336V209.561C88.9415 208.581 88.9109 207.791 88.8497 207.189C88.7885 206.577 88.6304 206.128 88.3754 205.842C88.1305 205.557 87.7327 205.414 87.1819 205.414C86.6412 205.414 86.2332 205.557 85.9577 205.842C85.6925 206.128 85.5191 206.577 85.4375 207.189C85.3559 207.801 85.3151 208.597 85.3151 209.576V210.372H82.1936V209.714C82.1936 208.734 82.2548 207.826 82.3772 206.99C82.4996 206.143 82.7342 205.409 83.0811 204.787C83.4279 204.164 83.9329 203.68 84.5959 203.333C85.2692 202.976 86.1516 202.797 87.2431 202.797C88.2836 202.797 89.12 202.966 89.7525 203.302C90.3952 203.629 90.8848 204.113 91.2214 204.756C91.5683 205.399 91.8029 206.194 91.9253 207.143C92.0477 208.081 92.1089 209.168 92.1089 210.402V226.025H88.9568V224.036C88.865 224.342 88.6865 224.668 88.4213 225.015C88.156 225.352 87.8092 225.637 87.3808 225.872C86.9523 226.107 86.4372 226.224 85.8353 226.224ZM86.7228 223.684C87.2737 223.684 87.748 223.51 88.1458 223.164C88.5437 222.807 88.8089 222.455 88.9415 222.108V213.371C88.156 213.717 87.5083 214.034 86.9982 214.319C86.4984 214.595 86.1057 214.885 85.82 215.191C85.5446 215.498 85.3508 215.865 85.2386 216.293C85.1264 216.722 85.0703 217.262 85.0703 217.915V220.042C85.0703 221.338 85.1825 222.271 85.4069 222.842C85.6313 223.403 86.07 223.684 86.7228 223.684ZM100.219 226.163C99.2394 226.163 98.4998 226.045 98 225.811C97.5001 225.576 97.1635 225.199 96.9901 224.678C96.8167 224.158 96.73 223.47 96.73 222.613V205.582H94.6337V203.256H96.73V199.094H99.8667V203.256H102.346V205.582H99.8667V222.337C99.8667 222.725 99.9178 223.016 100.02 223.209C100.122 223.393 100.351 223.515 100.708 223.577C101.065 223.638 101.621 223.668 102.376 223.668V226.163H100.219ZM112.842 226.025V203.073H115.979V205.506C116.183 204.792 116.617 204.159 117.28 203.608C117.953 203.057 118.754 202.782 119.682 202.782C120.835 202.782 121.733 203.19 122.375 204.006C123.018 204.822 123.339 206.062 123.339 207.724V226.025H120.202V207.74C120.202 206.924 120.019 206.332 119.652 205.965C119.284 205.597 118.815 205.414 118.244 205.414C117.826 205.414 117.443 205.506 117.096 205.689C116.749 205.873 116.474 206.159 116.27 206.546C116.076 206.934 115.979 207.434 115.979 208.046V226.025H112.842ZM132.489 226.3C131.408 226.3 130.531 226.117 129.858 225.749C129.184 225.372 128.664 224.842 128.297 224.158C127.94 223.464 127.695 222.638 127.562 221.679C127.43 220.71 127.363 219.629 127.363 218.435V210.31C127.363 208.872 127.501 207.587 127.777 206.454C128.052 205.322 128.557 204.429 129.291 203.777C130.036 203.124 131.102 202.797 132.489 202.797C133.53 202.797 134.382 202.986 135.045 203.363C135.708 203.731 136.223 204.256 136.59 204.94C136.957 205.613 137.207 206.408 137.34 207.327C137.483 208.234 137.554 209.229 137.554 210.31V218.435C137.554 219.609 137.493 220.675 137.371 221.633C137.248 222.592 137.008 223.424 136.651 224.128C136.305 224.821 135.795 225.357 135.121 225.734C134.458 226.112 133.581 226.3 132.489 226.3ZM132.489 223.684C133.04 223.684 133.448 223.5 133.714 223.133C133.989 222.766 134.173 222.256 134.264 221.603C134.356 220.94 134.402 220.175 134.402 219.308V209.683C134.402 208.826 134.356 208.081 134.264 207.449C134.173 206.806 133.989 206.306 133.714 205.949C133.438 205.592 133.03 205.414 132.489 205.414C131.918 205.414 131.49 205.592 131.204 205.949C130.918 206.306 130.73 206.806 130.638 207.449C130.556 208.081 130.516 208.826 130.516 209.683V219.308C130.516 220.175 130.556 220.94 130.638 221.603C130.73 222.256 130.918 222.766 131.204 223.133C131.49 223.5 131.918 223.684 132.489 223.684ZM142.971 226.025L140.293 203.073H142.925L144.134 215.849L144.486 220.241H144.623L145.205 215.834L147.026 203.073H147.852H149.26H149.765L151.586 215.498L152.213 220.241H152.335L152.703 215.482L153.896 203.073H156.467L153.697 226.025H150.805L148.495 208.061L145.74 226.025H142.971ZM161.241 218.466V213.631C162.261 213.315 163.051 212.942 163.613 212.514C164.174 212.085 164.577 211.555 164.821 210.922C165.076 210.29 165.229 209.51 165.28 208.581C165.342 207.653 165.372 206.531 165.372 205.215C165.372 203.868 165.326 202.91 165.234 202.338C165.143 201.767 164.791 201.481 164.179 201.481C163.516 201.481 163.123 201.757 163 202.308C162.888 202.859 162.832 203.848 162.832 205.276V208.275H159.726V205.062C159.726 204.378 159.762 203.67 159.833 202.935C159.915 202.201 160.093 201.517 160.369 200.885C160.644 200.252 161.078 199.742 161.669 199.355C162.261 198.957 163.077 198.758 164.117 198.758C165.158 198.758 165.974 198.931 166.566 199.278C167.168 199.615 167.606 200.104 167.882 200.747C168.167 201.39 168.346 202.17 168.417 203.088C168.499 203.996 168.54 205.016 168.54 206.148C168.54 207.913 168.417 209.392 168.172 210.586C167.928 211.769 167.474 212.718 166.811 213.432C166.158 214.146 165.214 214.681 163.98 215.038V218.466H161.241ZM161.287 226.025V221.45H163.995V226.025H161.287Z" fill="black"/>
<path d="M2.20341 38V11.0695H4.59043L10.8334 29.4006L10.5121 21.6122V11.0695H13.3123V38H10.9864L4.94236 19.5159L5.12598 26.3097V38H2.20341ZM22.539 38.2754C21.4577 38.2754 20.5804 38.0918 19.9072 37.7246C19.2339 37.3471 18.7137 36.8167 18.3464 36.1332C17.9894 35.4396 17.7446 34.6133 17.612 33.6544C17.4793 32.6853 17.413 31.604 17.413 30.4105V22.2854C17.413 20.8471 17.5507 19.5618 17.8262 18.4295C18.1016 17.2972 18.6065 16.4046 19.341 15.7517C20.0857 15.0989 21.1517 14.7724 22.539 14.7724C23.5795 14.7724 24.4313 14.9611 25.0944 15.3386C25.7574 15.7058 26.2726 16.2312 26.6398 16.9146C27.007 17.5879 27.257 18.3836 27.3896 19.3016C27.5324 20.2095 27.6038 21.2041 27.6038 22.2854V30.4105C27.6038 31.5836 27.5426 32.6496 27.4202 33.6085C27.2978 34.5674 27.058 35.3988 26.701 36.1026C26.3542 36.7963 25.8441 37.3318 25.1709 37.7093C24.5078 38.0867 23.6305 38.2754 22.539 38.2754ZM22.539 35.6589C23.0899 35.6589 23.4979 35.4753 23.7631 35.108C24.0386 34.7408 24.2222 34.2308 24.314 33.5779C24.4058 32.9148 24.4517 32.1498 24.4517 31.2827V21.6581C24.4517 20.8012 24.4058 20.0565 24.314 19.4241C24.2222 18.7814 24.0386 18.2816 23.7631 17.9245C23.4877 17.5675 23.0797 17.389 22.539 17.389C21.9678 17.389 21.5393 17.5675 21.2537 17.9245C20.9681 18.2816 20.7794 18.7814 20.6875 19.4241C20.6059 20.0565 20.5651 20.8012 20.5651 21.6581V31.2827C20.5651 32.1498 20.6059 32.9148 20.6875 33.5779C20.7794 34.2308 20.9681 34.7408 21.2537 35.108C21.5393 35.4753 21.9678 35.6589 22.539 35.6589ZM39.2482 38V15.0478H42.385V17.4349C42.589 16.7106 42.997 16.0832 43.6091 15.5528C44.2314 15.0223 45.0168 14.7571 45.9655 14.7571C46.7204 14.7571 47.3784 14.9407 47.9394 15.308C48.5005 15.6752 48.9238 16.2669 49.2094 17.0829C49.5869 16.3893 50.1071 15.8282 50.7702 15.3998C51.4332 14.9713 52.2085 14.7571 53.096 14.7571C54.3099 14.7571 55.2331 15.1907 55.8655 16.0577C56.498 16.9146 56.8142 18.1897 56.8142 19.8831V38H53.6774V19.7913C53.6774 18.9242 53.5091 18.3224 53.1725 17.9857C52.8359 17.6389 52.3921 17.4655 51.8413 17.4655C51.0558 17.4655 50.4845 17.644 50.1275 18.001C49.7807 18.3479 49.6073 18.9752 49.6073 19.8831V38H46.4552V19.776C46.4552 18.9599 46.2971 18.3734 45.9808 18.0163C45.6646 17.6491 45.2208 17.4655 44.6496 17.4655C43.9049 17.4655 43.3388 17.7052 42.9511 18.1846C42.5737 18.6641 42.385 19.3118 42.385 20.1279V38H39.2482ZM65.9645 38.2754C64.8832 38.2754 64.0059 38.0918 63.3327 37.7246C62.6594 37.3471 62.1391 36.8167 61.7719 36.1332C61.4149 35.4396 61.17 34.6133 61.0374 33.6544C60.9048 32.6853 60.8385 31.604 60.8385 30.4105V22.2854C60.8385 20.8471 60.9762 19.5618 61.2517 18.4295C61.5271 17.2972 62.032 16.4046 62.7665 15.7517C63.5112 15.0989 64.5772 14.7724 65.9645 14.7724C67.005 14.7724 67.8568 14.9611 68.5198 15.3386C69.1829 15.7058 69.698 16.2312 70.0653 16.9146C70.4325 17.5879 70.6824 18.3836 70.8151 19.3016C70.9579 20.2095 71.0293 21.2041 71.0293 22.2854V30.4105C71.0293 31.5836 70.9681 32.6496 70.8457 33.6085C70.7232 34.5674 70.4835 35.3988 70.1265 36.1026C69.7797 36.7963 69.2696 37.3318 68.5963 37.7093C67.9333 38.0867 67.056 38.2754 65.9645 38.2754ZM65.9645 35.6589C66.5154 35.6589 66.9234 35.4753 67.1886 35.108C67.464 34.7408 67.6477 34.2308 67.7395 33.5779C67.8313 32.9148 67.8772 32.1498 67.8772 31.2827V21.6581C67.8772 20.8012 67.8313 20.0565 67.7395 19.4241C67.6477 18.7814 67.464 18.2816 67.1886 17.9245C66.9132 17.5675 66.5051 17.389 65.9645 17.389C65.3932 17.389 64.9648 17.5675 64.6792 17.9245C64.3936 18.2816 64.2048 18.7814 64.113 19.4241C64.0314 20.0565 63.9906 20.8012 63.9906 21.6581V31.2827C63.9906 32.1498 64.0314 32.9148 64.113 33.5779C64.2048 34.2308 64.3936 34.7408 64.6792 35.108C64.9648 35.4753 65.3932 35.6589 65.9645 35.6589ZM75.176 38V15.0478H78.3281V17.6032C78.5933 16.7157 79.0523 16.022 79.7052 15.5222C80.3683 15.0223 81.2098 14.7724 82.2299 14.7724C82.2503 14.7724 82.2605 14.9101 82.2605 15.1856C82.2707 15.4508 82.2758 15.7568 82.2758 16.1036C82.2758 16.4505 82.2758 16.7616 82.2758 17.037C82.2758 17.3023 82.2758 17.4349 82.2758 17.4349C81.7862 17.4349 81.2965 17.4961 80.8069 17.6185C80.3172 17.7307 79.8582 17.9296 79.4298 18.2152C79.0013 18.4907 78.6341 18.8681 78.3281 19.3476V38H75.176ZM89.697 38.2754C88.5953 38.2754 87.7078 38.0867 87.0346 37.7093C86.3715 37.3216 85.8666 36.7759 85.5197 36.072C85.1729 35.3682 84.9383 34.5266 84.8159 33.5473C84.7037 32.5578 84.6476 31.4663 84.6476 30.2728V22.163C84.6476 21.0817 84.7241 20.0922 84.8771 19.1945C85.0301 18.2867 85.2953 17.5063 85.6728 16.8534C86.0502 16.1904 86.5755 15.6803 87.2488 15.3233C87.9221 14.956 88.7789 14.7724 89.8194 14.7724C90.8701 14.7724 91.7168 14.956 92.3595 15.3233C93.0021 15.6905 93.4867 16.2108 93.8131 16.884C94.1497 17.5471 94.3742 18.3428 94.4864 19.271C94.5986 20.1891 94.6547 21.199 94.6547 22.3007V26.631H87.7997V31.2062C87.7997 32.6547 87.8966 33.7615 88.0904 34.5266C88.2944 35.2814 88.8402 35.6589 89.7276 35.6589C90.3091 35.6589 90.7222 35.4804 90.967 35.1233C91.2221 34.7561 91.3751 34.2461 91.4261 33.5932C91.4873 32.9301 91.5179 32.1498 91.5179 31.2521V29.4006H94.5935V30.3799C94.5935 31.5734 94.5425 32.6547 94.4405 33.6238C94.3487 34.5929 94.1446 35.4243 93.8284 36.1179C93.5122 36.8116 93.0225 37.3471 92.3595 37.7246C91.7066 38.0918 90.8191 38.2754 89.697 38.2754ZM87.7844 24.5041H91.5179V21.5816C91.5179 20.6635 91.4873 19.8933 91.4261 19.271C91.3649 18.6386 91.217 18.1642 90.9824 17.848C90.7477 17.5216 90.3601 17.3584 89.8194 17.3584C89.2176 17.3584 88.7687 17.542 88.4729 17.9092C88.1873 18.2765 87.9986 18.7865 87.9068 19.4394C87.8252 20.082 87.7844 20.8318 87.7844 21.6887V24.5041ZM110.048 38.1377C109.069 38.1377 108.329 38.0204 107.829 37.7858C107.329 37.5512 106.993 37.1737 106.819 36.6535C106.646 36.1332 106.559 35.4447 106.559 34.5878V17.5573H104.463V15.2315H106.559V11.0695H109.696V15.2315H112.175V17.5573H109.696V34.3124C109.696 34.7 109.747 34.9907 109.849 35.1845C109.951 35.3682 110.181 35.4906 110.538 35.5518C110.895 35.613 111.451 35.6436 112.205 35.6436V38.1377H110.048ZM119.948 38.2754C118.867 38.2754 117.989 38.0918 117.316 37.7246C116.643 37.3471 116.123 36.8167 115.755 36.1332C115.398 35.4396 115.154 34.6133 115.021 33.6544C114.888 32.6853 114.822 31.604 114.822 30.4105V22.2854C114.822 20.8471 114.96 19.5618 115.235 18.4295C115.511 17.2972 116.016 16.4046 116.75 15.7517C117.495 15.0989 118.561 14.7724 119.948 14.7724C120.988 14.7724 121.84 14.9611 122.503 15.3386C123.166 15.7058 123.682 16.2312 124.049 16.9146C124.416 17.5879 124.666 18.3836 124.799 19.3016C124.941 20.2095 125.013 21.2041 125.013 22.2854V30.4105C125.013 31.5836 124.952 32.6496 124.829 33.6085C124.707 34.5674 124.467 35.3988 124.11 36.1026C123.763 36.7963 123.253 37.3318 122.58 37.7093C121.917 38.0867 121.039 38.2754 119.948 38.2754ZM119.948 35.6589C120.499 35.6589 120.907 35.4753 121.172 35.108C121.448 34.7408 121.631 34.2308 121.723 33.5779C121.815 32.9148 121.861 32.1498 121.861 31.2827V21.6581C121.861 20.8012 121.815 20.0565 121.723 19.4241C121.631 18.7814 121.448 18.2816 121.172 17.9245C120.897 17.5675 120.489 17.389 119.948 17.389C119.377 17.389 118.948 17.5675 118.663 17.9245C118.377 18.2816 118.188 18.7814 118.096 19.4241C118.015 20.0565 117.974 20.8012 117.974 21.6581V31.2827C117.974 32.1498 118.015 32.9148 118.096 33.5779C118.188 34.2308 118.377 34.7408 118.663 35.108C118.948 35.4753 119.377 35.6589 119.948 35.6589ZM132.709 38.1989C131.577 38.1989 130.73 37.8674 130.169 37.2043C129.618 36.5413 129.251 35.6436 129.068 34.5113C128.894 33.3688 128.808 32.0834 128.808 30.6553V21.9794C128.808 20.6125 128.93 19.3884 129.175 18.3071C129.43 17.2156 129.874 16.3536 130.506 15.7211C131.149 15.0887 132.041 14.7724 133.184 14.7724C133.786 14.7724 134.321 14.9458 134.79 15.2927C135.27 15.6395 135.632 16.0679 135.877 16.578V10.7787H139.029V38H135.877V36.072C135.571 36.8269 135.137 37.3726 134.576 37.7093C134.015 38.0357 133.393 38.1989 132.709 38.1989ZM133.796 35.6436C134.275 35.6436 134.668 35.5263 134.974 35.2917C135.29 35.0468 135.52 34.598 135.663 33.9451C135.816 33.2923 135.892 32.3589 135.892 31.145V21.9335C135.892 20.4442 135.765 19.3169 135.51 18.5519C135.265 17.7868 134.719 17.4043 133.872 17.4043C133.107 17.4145 132.597 17.7919 132.342 18.5366C132.087 19.271 131.96 20.4289 131.96 22.01V31.2827C131.96 32.1702 132 32.9403 132.082 33.5932C132.174 34.2461 132.352 34.751 132.618 35.108C132.883 35.4651 133.276 35.6436 133.796 35.6436ZM148.317 38.2754C147.236 38.2754 146.358 38.0918 145.685 37.7246C145.012 37.3471 144.491 36.8167 144.124 36.1332C143.767 35.4396 143.522 34.6133 143.39 33.6544C143.257 32.6853 143.191 31.604 143.191 30.4105V22.2854C143.191 20.8471 143.329 19.5618 143.604 18.4295C143.879 17.2972 144.384 16.4046 145.119 15.7517C145.864 15.0989 146.93 14.7724 148.317 14.7724C149.357 14.7724 150.209 14.9611 150.872 15.3386C151.535 15.7058 152.05 16.2312 152.418 16.9146C152.785 17.5879 153.035 18.3836 153.167 19.3016C153.31 20.2095 153.382 21.2041 153.382 22.2854V30.4105C153.382 31.5836 153.32 32.6496 153.198 33.6085C153.076 34.5674 152.836 35.3988 152.479 36.1026C152.132 36.7963 151.622 37.3318 150.949 37.7093C150.286 38.0867 149.408 38.2754 148.317 38.2754ZM148.317 35.6589C148.868 35.6589 149.276 35.4753 149.541 35.108C149.816 34.7408 150 34.2308 150.092 33.5779C150.184 32.9148 150.23 32.1498 150.23 31.2827V21.6581C150.23 20.8012 150.184 20.0565 150.092 19.4241C150 18.7814 149.816 18.2816 149.541 17.9245C149.266 17.5675 148.857 17.389 148.317 17.389C147.746 17.389 147.317 17.5675 147.032 17.9245C146.746 18.2816 146.557 18.7814 146.465 19.4241C146.384 20.0565 146.343 20.8012 146.343 21.6581V31.2827C146.343 32.1498 146.384 32.9148 146.465 33.5779C146.557 34.2308 146.746 34.7408 147.032 35.108C147.317 35.4753 147.746 35.6589 148.317 35.6589ZM161.797 38.306C160.165 38.306 158.926 37.796 158.079 36.7759C157.232 35.7456 156.809 34.042 156.809 31.6652V29.9361H159.854V31.6499C159.854 32.9352 159.992 33.9196 160.267 34.6031C160.553 35.2865 161.017 35.6283 161.66 35.6283C162.302 35.6283 162.772 35.4192 163.067 35.0009C163.373 34.5827 163.526 33.8329 163.526 32.7516C163.526 32.211 163.445 31.6754 163.282 31.145C163.118 30.6043 162.869 30.0739 162.532 29.5536C162.195 29.0232 161.762 28.508 161.231 28.0082L159.609 26.4627C158.64 25.5344 157.901 24.55 157.391 23.5095C156.881 22.4588 156.626 21.3469 156.626 20.1738C156.626 18.3173 157.064 16.9554 157.941 16.0883C158.819 15.2111 160.028 14.7724 161.568 14.7724C162.598 14.7724 163.465 14.9968 164.169 15.4457C164.873 15.8945 165.403 16.6392 165.76 17.6797C166.118 18.7202 166.296 20.1381 166.296 21.9335V23.0352H163.312V21.4438C163.312 20.1585 163.185 19.1741 162.93 18.4907C162.685 17.8072 162.241 17.4655 161.598 17.4655C160.976 17.4655 160.507 17.6491 160.191 18.0163C159.885 18.3734 159.716 19.0313 159.686 19.9902C159.676 20.4799 159.737 20.9746 159.869 21.4745C160.012 21.9743 160.242 22.469 160.558 22.9587C160.874 23.4483 161.282 23.9278 161.782 24.397L163.435 25.9425C164.506 26.932 165.312 27.998 165.852 29.1405C166.403 30.2728 166.679 31.4714 166.679 32.7363C166.679 34.4705 166.281 35.8323 165.485 36.8218C164.7 37.8113 163.47 38.306 161.797 38.306ZM170.198 38V34.9703H172.876V38H170.198ZM178.338 38V34.9703H181.016V38H178.338ZM186.479 38V34.9703H189.156V38H186.479Z" fill="black"/>
<defs>
<linearGradient id="paint0_linear_321_31" x1="69.3892" y1="76.4181" x2="98.5327" y2="105.562" gradientUnits="userSpaceOnUse">
<stop stop-color="white"/>
<stop offset="1" stop-color="white" stop-opacity="0"/>
</linearGradient>
<linearGradient id="paint1_linear_321_31" x1="113.799" y1="76.4181" x2="142.942" y2="105.562" gradientUnits="userSpaceOnUse">
<stop stop-color="white"/>
<stop offset="1" stop-color="white" stop-opacity="0"/>
</linearGradient>
</defs>
</svg>
