<svg width="20" height="21" viewBox="0 0 20 21" fill="none" xmlns="http://www.w3.org/2000/svg">
<path d="M5.83341 9.66675L9.16675 2.16675C9.82979 2.16675 10.4657 2.43014 10.9345 2.89898C11.4034 3.36782 11.6667 4.00371 11.6667 4.66675V8.00008H16.3834C16.625 7.99735 16.8643 8.04717 17.0847 8.1461C17.3051 8.24502 17.5014 8.39069 17.66 8.57301C17.8185 8.75533 17.9355 8.96993 18.0029 9.20196C18.0702 9.43398 18.0863 9.67788 18.0501 9.91675L16.9001 17.4167C16.8398 17.8142 16.6379 18.1764 16.3317 18.4368C16.0254 18.6971 15.6354 18.838 15.2334 18.8334H5.83341M5.83341 9.66675V18.8334M5.83341 9.66675H3.33341C2.89139 9.66675 2.46746 9.84234 2.1549 10.1549C1.84234 10.4675 1.66675 10.8914 1.66675 11.3334V17.1667C1.66675 17.6088 1.84234 18.0327 2.1549 18.3453C2.46746 18.6578 2.89139 18.8334 3.33341 18.8334H5.83341" stroke="black" stroke-linecap="round" stroke-linejoin="round"/>
</svg>
